<?xml version="1.0" standalone="no"?><!DOCTYPE svg PUBLIC "-//W3C//DTD SVG 1.1//EN" "http://www.w3.org/Graphics/SVG/1.1/DTD/svg11.dtd"><svg t="1700897804151" class="icon" viewBox="0 0 1024 1024" version="1.1" xmlns="http://www.w3.org/2000/svg" p-id="1071" xmlns:xlink="http://www.w3.org/1999/xlink" width="200" height="200"><path d="M163.033196 176.051219a2103.290226 2103.290226 0 0 1-16.116275-32.465276c-14.388284-29.788927-21.468973-61.922568-21.236246-96.406741 0.116363-22.399877 14.138104-55.097878 41.425226-45.43975 12.509022 4.479975 18.501716 18.094446 18.850805 31.883461 1.338174 53.585159 8.14541 96.174015 36.421617 137.715605 2.32726 3.415254 3.723616 3.083619 4.189068-0.989086 4.130886-35.897984 26.4144-110.893934 74.297773-107.868496 15.592641 0.989085 22.458058 21.527154 19.316257 35.083443-0.814541 3.49089-3.764343 9.250858-8.843588 17.279904-26.065311 41.1925-36.828888 86.556614-32.290731 136.086523 0.40727 4.247249-0.698178 13.381744 0.523634 19.607165 0.506179 2.600713 1.669809 2.909075 3.490889 0.930904 28.508934-31.010738 72.66869-79.010474 105.424874-96.34856 11.79339-6.242875 21.003521-3.042892 27.636211 9.599947 9.192677 17.530085 6.632691 33.122727-7.679957 46.777924-30.952557 29.498019-84.886805 63.999647-85.410439 111.999383-0.581815 55.737875 49.047002 98.850364 81.97773 136.610156a9.774492 9.774492 0 0 0 9.541766 3.025438l71.737786-17.047179c1.471992-0.349089 2.193442-1.279993 2.152716-2.792712-0.232726-30.603468-2.32726-56.028782 26.123492-73.366868 6.557055-3.997069 12.509022-2.501804 17.86172 4.479975 15.301734 19.839891 16.116275 43.985212 15.94173 67.6069a5.0327 5.0327 0 0 0 3.665434 4.945427l65.803274 18.61808a4.218159 4.218159 0 0 0 4.770883-1.91999 246.904821 246.904821 0 0 1 32.290731-43.51976c26.356218-28.450752 67.6069-80.232285 47.592465-116.94481-20.247161-37.119795-55.796056-67.025085-87.563154-94.137663-4.65452-3.997069-9.210131-10.431943-13.672652-19.316257a8.820315 8.820315 0 0 1-0.698178-5.643605c3.217437-15.94173 12.584658-26.606399 28.101664-31.999824 2.018898-0.698178 3.997069-0.599269 5.934512 0.290907a102.16671 102.16671 0 0 1 31.010739 21.992607 1162.757228 1162.757228 0 0 0 79.534107 74.646861 2.967256 2.967256 0 0 0 4.945427-2.094534c2.618167-50.443358 0.058181-101.177624-29.439838-146.908281-12.625385-19.607165-21.992606-39.039785 1.338175-53.526978 44.916116-27.927119 76.392306 74.530498 81.745004 100.24672 1.122903 5.428334 2.89162 5.643605 5.294516 0.639997 20.75334-43.479033 31.63328-89.931141 32.63982-139.344687 0.581815-29.14893 36.363436-37.236158 50.966992-12.45084 15.185371 25.716222 1.861808 88.726784-7.38905 113.803009-2.519259 6.906144-9.55922 22.591875-21.119884 47.068831a1.687263 1.687263 0 0 0 2.501805 2.152716c23.272599-15.418097 88.261332-53.934248 111.243023-22.981692 15.127189 20.305343-0.814541 42.996127-22.51624 50.850629-60.508757 21.934425-112.872105 38.86524-166.864535 81.163189a6.458146 6.458146 0 0 0-2.385441 3.781797l-19.43262 81.686823a2.443623 2.443623 0 0 0 3.49089 2.792712c18.850805-9.15195 37.70161-18.367899 56.552415-27.636212 29.788927-14.603556 40.436141-30.487105 58.996039-52.537892 18.385353-21.876243 39.097966 10.763577 35.025261 29.14893-9.949036 45.090661-52.188803 71.039608-90.53041 86.399524-60.62512 24.261684-116.479358 37.992518-148.944634 101.526713-0.930904 1.861808-0.890177 3.723616 0.116363 5.585424a55.167696 55.167696 0 0 0 12.683567 15.12719c1.786172 1.512719 3.450163 1.396356 5.003609-0.349089 27.653666-29.980926 60.799665-51.333535 99.432179-64.057829 57.89059-19.141713 136.784701-24.436229 193.10439 2.73453 14.37083 6.923598 0.989085 42.065223-3.839979 52.945163-36.113256 82.542091-103.231431 129.529468-201.366163 140.973768-3.298891 0.389816-4.578884 2.193442-3.839978 5.41088 15.749731 68.578531 8.826133 132.962176-20.770795 193.162571-105.6576 215.038815-411.226824 209.627936-511.589908-6.807235-27.461667-59.188037-33.80345-123.420411-19.025349-192.69712 0.465452-2.251624-0.447998-3.49089-2.734531-3.723615-83.839538-7.621776-162.38456-55.15606-194.617109-135.853797-4.712701-11.810844-17.279905-50.210632 1.279993-56.145145 77.206847-24.49441 163.839097-19.548983 234.820524 20.770794 17.221723 9.774492 33.687087 24.668955 49.570636 37.934337a9.367221 9.367221 0 0 0 8.901769 1.687263c6.091603-1.978171 9.30904-6.731599 9.658129-14.254467 1.221811-24.261684-26.298037-51.141536-44.857935-63.301469-8.104683-5.277062-23.970777-11.944661-47.592465-20.014435-43.51976-14.836282-127.301117-44.159757-139.86832-95.650382-3.141801-12.724294-1.41381-24.651501 5.178153-35.781621 17.512631-29.614382 45.148842 15.825367 55.679693 29.207112 18.967168 24.203503 70.050523 38.574333 100.537628 44.217938a2.385441 2.385441 0 0 0 2.385441-3.665434c-16.366455-24.279139-26.687853-51.624443-30.952556-82.035912-0.930904-6.458146-5.294516-11.170848-10.298125-14.196285-44.567027-26.647126-98.152186-44.159757-146.8501-61.788751-14.079922-5.119972-28.392571-12.625385-33.80345-27.228941-7.621776-20.479887 8.14541-44.567027 32.407094-39.039784a297.394725 297.394725 0 0 1 81.221371 31.767097c2.519259 1.471992 3.124346 0.91345 1.803626-1.687263z m114.326643 388.768766c-50.966992-45.905202-112.581198-62.486928-182.457177-53.759703-1.902535 0.232726-2.559986 1.279993-1.978171 3.1418 18.559898 55.912419 103.155795 88.901328 157.031862 93.206759a7.796321 7.796321 0 0 0 6.98178-3.258163l21.410791-30.312561a6.865417 6.865417 0 0 0-0.989085-9.018132z m567.618689 23.970777c39.639054-12.142479 68.962529-36.555435 87.970425-73.250505a3.723616 3.723616 0 0 0-3.258164-5.410879c-73.075961-0.349089-126.312031 6.749054-182.689902 55.097878a8.290863 8.290863 0 0 0-1.396356 10.996303c4.962882 7.022507 10.199217 14.446466 15.709004 22.283513 2.17017 3.066165 4.439248 4.788337 6.807235 5.178154 2.48435 0.389816 5.544697 0.273453 9.192677-0.349089 32.38964-5.777423 54.940788-10.62976 67.665081-14.545375z m-344.434465-66.210544c-31.575099 3.141801-57.349502 8.279227-77.32321 15.418097-190.195315 68.130534-185.424433 326.281838-8.959951 405.641401 20.520614 8.959951 41.675407 14.271921 63.476014 15.94173 2.135261 0.191999 3.3338-0.773814 3.607253-2.909075 1.937444-14.737373-2.792712-26.222401-14.196285-34.443446a9.30904 9.30904 0 0 1-3.199983-11.170848c14.004286-33.977995 38.167062-43.595396 72.494146-28.858023 14.312648 6.126512 20.380979 17.86172 18.210809 35.199806a7.621776 7.621776 0 0 1-2.152716 4.363613c-10.065399 9.890855-37.177977 24.843499-10.87994 39.039784 53.061526-6.324329 97.529644-29.690018 133.410174-70.108704 43.444124-48.988821 62.137839-107.2285 56.086964-174.719037-2.635622-29.364202-10.065399-53.83534-22.283514-73.42505-22.417331-43.51976-54.24261-75.59522-95.475837-96.232197-22.92351-11.461755-64.290555-23.796232-88.20315-27.228941-12.991928-1.861808-21.19552-0.698178-24.610774 3.49089z" fill="#343333" p-id="1072"></path><path d="M94.902662 511.060282c69.875979-8.727225 131.490184 7.854502 182.457177 53.759703 2.54835 2.32726 2.973075 6.190511 0.989085 9.018132l-21.410791 30.312561a7.796321 7.796321 0 0 1-6.98178 3.258163c-53.876067-4.305431-138.471964-37.29434-157.031862-93.206759-0.581815-1.861808 0.075636-2.909075 1.978171-3.1418zM844.978528 588.790762c-12.724294 3.915615-35.275442 8.767952-67.665081 14.545375-3.64798 0.622542-6.708327 0.738905-9.192677 0.349089-2.367987-0.389816-4.637065-2.111988-6.807235-5.178154-5.509788-7.837048-10.746123-15.261007-15.709004-22.283513a8.290863 8.290863 0 0 1 1.396356-10.996303c56.377871-48.348824 109.613941-55.446967 182.689902-55.097878a3.723616 3.723616 0 0 1 3.258164 5.410879c-19.007895 36.69507-48.33137 61.108027-87.970425 73.250505zM708.833824 642.550466c0.971631 5.311971-1.16363 8.727225-6.399964 10.239944-21.818062 6.22542-59.46149-47.534283-77.788663-14.894464a13.090837 13.090837 0 0 0 1.978171 15.418097c9.192677 9.483584 20.305343 15.709004 28.043482 26.181674 30.719831 41.367045 39.505237 84.130445 15.94173 131.490184-24.145321 48.697913-58.588768 96.464923-102.166709 129.337469-9.268313 6.98178-18.210809 13.806469-26.821671 20.479887-26.298037-14.196285 0.814541-29.14893 10.87994-39.039784a7.621776 7.621776 0 0 0 2.152716-4.363613c2.17017-17.338086-3.89816-29.073294-18.210809-35.199806-34.327084-14.737373-58.489859-5.119972-72.494146 28.858023a9.30904 9.30904 0 0 0 3.199983 11.170848c11.403574 8.221046 16.133729 19.706073 14.196285 34.443446-0.273453 2.135261-1.471992 3.101074-3.607253 2.909075-21.800607-1.669809-42.9554-6.98178-63.476014-15.94173 3.531617 0.657451 6.126512 0.191999 7.796321-1.396356 1.512719-1.471992 1.821081-3.159255 0.930904-5.061791a302.514696 302.514696 0 0 1-27.112578-97.570371c-0.890177-8.686498-7.429777-18.327172-19.607165-28.916204 79.65047 8.669043 63.185106-116.072088-13.730833-92.566763-16.250092 5.003609-24.959862 17.204269-26.123492 36.596162-15.901003-38.632514-13.713379-75.810491 6.574509-111.533931 26.938033-47.476102 69.759616-71.272334 119.737522-95.243111 6.242875-3.025438 18.850805-11.479209 37.817973-25.367133 3.415254-4.189068 11.618845-5.352698 24.610774-3.49089 23.912595 3.432708 65.27964 15.767186 88.20315 27.228941 41.233227 20.636977 73.058506 52.712437 95.475837 96.232197z m-81.279552 164.863091c22.714057 1.710536 42.79831-19.089349 44.857935-46.452107 0.989085-13.1432-2.397078-26.071129-9.413766-35.944529-7.016689-9.8734-17.087906-15.877731-27.996937-16.69809-22.714057-1.710536-42.79831 19.089349-44.857935 46.452107-0.989085 13.1432 2.397078 26.071129 9.413767 35.94453 7.016689 9.8734 17.082088 15.877731 27.996936 16.698089z" fill="#CA9F54" p-id="1073"></path><path d="M500.544063 522.580218c-18.967168 13.887923-31.575099 22.341695-37.817973 25.367133-49.977906 23.970777-92.799489 47.767009-119.737522 95.243111-20.287888 35.723439-22.475512 72.901416-6.574509 111.533931 6.475601 26.647126 19.764255 45.305932 39.854325 55.970601 12.177387 10.589033 18.716988 20.229707 19.607165 28.916204a302.514696 302.514696 0 0 0 27.112578 97.570371c0.890177 1.902535 0.581815 3.589798-0.930904 5.061791-1.669809 1.588355-4.264704 2.053807-7.796321 1.396356-176.464482-79.359563-181.235365-337.510867 8.959951-405.641401 19.973708-7.13887 45.748112-12.276296 77.32321-15.418097z" fill="#E4D1A8" p-id="1074"></path><path d="M708.833824 642.550466c12.218114 19.58971 19.647892 44.060848 22.283514 73.42505 6.050876 67.490537-12.642839 125.730216-56.086964 174.719037-35.88053 40.418686-80.348648 63.784376-133.410174 70.108704 8.610862-6.673418 17.553358-13.498107 26.821671-20.479887 43.577942-32.872546 78.021388-80.639556 102.166709-129.337469 23.563506-47.359739 14.7781-90.12314-15.94173-131.490184-7.738139-10.47267-18.850805-16.69809-28.043482-26.181674a13.090837 13.090837 0 0 1-1.978171-15.418097c18.327172-32.63982 55.970601 21.119884 77.788663 14.894464 5.236335-1.512719 7.371596-4.927973 6.399964-10.239944z" fill="#AC884A" p-id="1075"></path><path d="M635.003356 708.319057a41.250682 49.686999 4.3 1 0-7.450936 99.094274 41.250682 49.686999 4.3 1 0 7.450936-99.094274Z" fill="#343333" p-id="1076"></path><path d="M376.268384 810.694994c-20.090071-10.664668-33.378725-29.323475-39.854325-55.970601 1.16363-19.391893 9.8734-31.592553 26.123492-36.596162 76.91594-23.505325 93.381304 101.235806 13.730833 92.566763z" fill="#343333" p-id="1077"></path></svg>